<?xml version="1.0" encoding="UTF-8" standalone="no"?>
<svg width="36px" height="40px" viewBox="0 0 36 40" version="1.1" xmlns="http://www.w3.org/2000/svg" xmlns:xlink="http://www.w3.org/1999/xlink">
    <!-- Generator: Sketch 46.2 (44496) - http://www.bohemiancoding.com/sketch -->
    <title>Logo</title>
    <desc>Created with Sketch.</desc>
    <defs>
        <polygon id="path-1" points="17.8204557 40 0.0273417722 40 0.0273417722 0.355 17.8204557 0.355 35.6135696 0.355 35.6135696 40 17.8204557 40"></polygon>
    </defs>
    <g id="Symbols" stroke="none" stroke-width="1" fill="none" fill-rule="evenodd">
        <g id="Bars-/-Admin-/-Top" transform="translate(-30.000000, -10.000000)">
            <g id="Topbar" transform="translate(30.000000, 10.000000)">
                <g id="Logo">
                    <g id="Certria_LogoFinal-(1)">
                        <g id="Group-3">
                            <mask id="mask-2" fill="white">
                                <use xlink:href="#path-1"></use>
                            </mask>
                            <g id="Clip-2"></g>
                            <path d="M33.3874937,27.8681818 C33.3874937,28.6795455 32.9513924,29.3886364 32.3011139,29.7763636 L18.9159494,37.485 C18.5892152,37.6722727 18.2105316,37.7795455 17.8067848,37.7795455 C17.3957468,37.7795455 17.0102278,37.6686364 16.6798481,37.4745455 L3.33524051,29.7895455 C2.67174684,29.405 2.22607595,28.6886364 2.22607595,27.8686364 L2.22607595,12.4863636 C2.22607595,11.6627273 2.67539241,10.9440909 3.34298734,10.5609091 L16.6976203,2.87 C17.0243544,2.68272727 17.403038,2.57545455 17.8067848,2.57545455 C18.2141772,2.57545455 18.5960506,2.68454545 18.9246076,2.87545455 L32.2796962,10.5663636 C32.9422785,10.9509091 33.3874937,11.6668182 33.3874937,12.4863636 L33.3874937,27.8681818 Z M33.3979747,8.64590909 L20.0428861,0.955454545 C20.0100759,0.936363636 19.9772658,0.917272727 19.944,0.899090909 C19.3092152,0.552272727 18.5810127,0.355 17.8067848,0.355 C17.0238987,0.355 16.2879494,0.556818182 15.6490633,0.910454545 C15.6290127,0.921818182 15.608962,0.933181818 15.5889114,0.944545455 L2.23427848,8.635 C0.899088608,9.40181818 0,10.8395455 0,12.4863636 L0,27.8686364 C0,29.5122727 0.894987342,30.9463636 2.22562025,31.7136364 L15.5807089,39.405 C16.2355443,39.7827273 16.9956456,40 17.8067848,40 C18.6174684,40 19.3780253,39.7836364 20.0328608,39.4054545 L33.3879494,31.7145455 C34.7181266,30.9468182 35.6135696,29.5122727 35.6135696,27.8681818 L35.6135696,12.4863636 C35.6135696,10.8472727 34.7226835,9.41545455 33.3979747,8.64590909 L33.3979747,8.64590909 Z" id="Fill-1" fill="#435763" mask="url(#mask-2)"></path>
                        </g>
                        <path d="M10.0294177,14.4059091 L5.57088608,11.8427273 L15.5898228,6.07181818 C15.6098734,6.06045455 15.6299241,6.04909091 15.6499747,6.03818182 C16.2888608,5.68409091 17.0248101,5.48227273 17.8072405,5.48227273 C18.5819241,5.48227273 19.3101266,5.68 19.9444557,6.02681818 C19.9781772,6.045 20.0109873,6.06363636 20.0437975,6.08272727 L30.0267342,11.8336364 L25.5768608,14.3968182 L18.925519,10.5663636 C18.596962,10.3754545 18.2150886,10.2663636 17.8072405,10.2663636 C17.4039494,10.2663636 17.0252658,10.3736364 16.6985316,10.5609091 L10.0294177,14.4059091" id="Fill-4" fill="#278FC2"></path>
                        <path d="M26.707443,16.3109091 L31.1636962,13.7459091 L31.1573165,25.3018182 C31.1573165,25.3245455 31.1573165,25.3477273 31.1568608,25.37 C31.1454684,26.0995455 31.0073924,26.8354545 30.6164051,27.5118182 C30.2299747,28.1813636 29.6416709,28.7131818 29.0232911,29.0881818 C28.9909367,29.1081818 28.9585823,29.1272727 28.9257722,29.1459091 L18.9132152,34.9281818 L18.9200506,29.7913636 L25.591443,25.9677273 C25.9213671,25.7786364 26.2339747,25.5127273 26.4372152,25.16 C26.6386329,24.8113636 26.707443,24.4209091 26.707443,24.0454545 L26.707443,16.3109091" id="Fill-5" fill="#278FC2"></path>
                        <path d="M8.90065823,16.3218182 L4.45260759,13.7622727 L4.44167089,25.3009091 C4.44167089,25.3240909 4.44167089,25.3472727 4.44212658,25.3695455 C4.45397468,26.0990909 4.64582278,26.8354545 5.03635443,27.5118182 C5.42278481,28.1813636 5.95777215,28.7127273 6.5756962,29.0877273 C6.60805063,29.1072727 6.64086076,29.1268182 6.67367089,29.1454545 L16.6916962,34.9159091 L16.6916962,29.7904545 L10.0111899,25.9413636 C9.68126582,25.7522727 9.3955443,25.4768182 9.1923038,25.1245455 C8.99088608,24.7759091 8.89518987,24.395 8.89518987,24.0195455 L8.90065823,16.3218182" id="Fill-6" fill="#278FC2"></path>
                        <path d="M17.7821772,26.3336364 C17.5046582,26.3336364 17.2462785,26.2804545 17.0434937,26.1636364 L12.9887089,23.8172727 C12.5712911,23.5768182 12.2518481,23.0122727 12.2518481,22.5318182 L12.2518481,17.8386364 C12.2518481,17.3581818 12.5767595,16.7890909 12.9937215,16.5490909 L17.0662785,14.1990909 C17.2686076,14.0827273 17.5329114,14.0186364 17.8104304,14.0186364 C18.0879494,14.0186364 18.355443,14.0904545 18.5573165,14.2068182 L22.9789367,16.7522727 C23.0591392,16.7981818 23.1092658,16.8822727 23.1115443,16.9745455 C23.1133671,17.0668182 23.0664304,17.1531818 22.9885063,17.2018182 L20.1723038,18.825 C20.1299241,18.8518182 20.0811646,18.865 20.0328608,18.865 C19.9877468,18.865 19.9421772,18.8531818 19.9011646,18.83 L18.0829367,17.78 C18.0168608,17.7422727 17.9152405,17.7195455 17.8108861,17.7195455 C17.7060759,17.7195455 17.6044557,17.7422727 17.5383797,17.78 L15.8513924,18.7581818 C15.7114937,18.8390909 15.5793418,19.0677273 15.5793418,19.2290909 L15.5793418,21.1518182 C15.5793418,21.3131818 15.7114937,21.5418182 15.8513924,21.6227273 L17.5333671,22.5936364 C17.599443,22.6318182 17.701519,22.6545455 17.8058734,22.6545455 C17.9102278,22.6545455 18.0118481,22.6318182 18.0779241,22.5936364 L19.9002532,21.5440909 C19.9408101,21.5213636 19.9863797,21.5090909 20.0314937,21.5090909 C20.0766076,21.5090909 20.1221772,21.5213636 20.1627342,21.5440909 L22.9748354,23.165 C23.0564051,23.2113636 23.1065316,23.2986364 23.1060759,23.3922727 C23.1060759,23.4859091 23.0559494,23.5722727 22.9743797,23.6190909 L18.5308861,26.1640909 C18.3294684,26.2804545 18.0596962,26.3336364 17.7821772,26.3336364" id="Fill-7" fill="#435763"></path>
                    </g>
                </g>
            </g>
        </g>
    </g>
</svg>